<?xml version="1.0" encoding="UTF-8" standalone="no"?>
<!-- Created with Inkscape (http://www.inkscape.org/) -->

<svg
   xmlns:dc="http://purl.org/dc/elements/1.1/"
   xmlns:cc="http://creativecommons.org/ns#"
   xmlns:rdf="http://www.w3.org/1999/02/22-rdf-syntax-ns#"
   xmlns:svg="http://www.w3.org/2000/svg"
   xmlns="http://www.w3.org/2000/svg"
   xmlns:sodipodi="http://sodipodi.sourceforge.net/DTD/sodipodi-0.dtd"
   xmlns:inkscape="http://www.inkscape.org/namespaces/inkscape"
   width="49.952862mm"
   height="16.922792mm"
   viewBox="0 0 49.952862 16.922792"
   version="1.1"
   id="svg8"
   inkscape:version="0.92pre1 15099"
   sodipodi:docname="B1DPX.svg">
  <title
     id="title45">B1DPX</title>
  <defs
     id="defs2">
    <pattern
       y="0"
       x="0"
       height="6"
       width="6"
       patternUnits="userSpaceOnUse"
       id="EMFhbasepattern" />
  </defs>
  <sodipodi:namedview
     id="base"
     pagecolor="#ffffff"
     bordercolor="#666666"
     borderopacity="1.0"
     inkscape:pageopacity="0.0"
     inkscape:pageshadow="2"
     inkscape:zoom="3.959798"
     inkscape:cx="26.933178"
     inkscape:cy="46.489137"
     inkscape:document-units="mm"
     inkscape:current-layer="layer1"
     showgrid="false"
     fit-margin-top="0"
     fit-margin-left="0"
     fit-margin-right="0"
     fit-margin-bottom="0"
     inkscape:window-width="1920"
     inkscape:window-height="1123"
     inkscape:window-x="-9"
     inkscape:window-y="-9"
     inkscape:window-maximized="1" />
  <metadata
     id="metadata5">
    <rdf:RDF>
      <cc:Work
         rdf:about="">
        <dc:format>image/svg+xml</dc:format>
        <dc:type
           rdf:resource="http://purl.org/dc/dcmitype/StillImage" />
        <dc:title>B1DPX</dc:title>
        <dc:date>2016-10-14</dc:date>
        <dc:publisher>
          <cc:Agent>
            <dc:title>vladimir.kolchuzhin@ieee.org</dc:title>
          </cc:Agent>
        </dc:publisher>
      </cc:Work>
    </rdf:RDF>
  </metadata>
  <g
     inkscape:label="Layer 1"
     inkscape:groupmode="layer"
     id="layer1"
     transform="translate(-459.58903,-212.94328)">
    <path
       id="path13"
       d="m 460.24516,226.51118 h -0.46566 c -0.0635,0 -0.127,0 -0.14817,-0.0423 -0.0212,-0.0212 -0.0423,-0.0635 -0.0423,-0.127 v -1.14299 c 0,-0.0635 0.0212,-0.127 0.0423,-0.14817 0.0212,-0.0212 0.0847,-0.0423 0.14817,-0.0423 h 0.48683 c 0.0635,0 0.127,0 0.1905,0 0.0423,0.0212 0.10583,0.0423 0.14816,0.0635 0.0212,0.0212 0.0635,0.0423 0.0847,0.0847 0.0212,0.0212 0.0423,0.0635 0.0635,0.10584 0.0212,0.0423 0.0212,0.0847 0.0212,0.127 0,0.14816 -0.0635,0.25399 -0.23283,0.33866 0.21167,0.0635 0.29633,0.16933 0.29633,0.35983 0,0.0847 -0.0212,0.16933 -0.0635,0.23283 -0.0423,0.0635 -0.0847,0.10583 -0.16933,0.14817 -0.0423,0.0212 -0.10583,0.0423 -0.14816,0.0423 -0.0635,0 -0.14817,0 -0.21167,0 z m -0.0212,-0.65616 h -0.31749 v 0.4445 h 0.31749 c 0.21167,0 0.3175,-0.0847 0.3175,-0.23283 0,-0.0847 -0.0212,-0.127 -0.0847,-0.16934 -0.0635,-0.0423 -0.127,-0.0423 -0.23284,-0.0423 z m -0.31749,-0.61383 v 0.381 h 0.27516 c 0.0635,0 0.127,0 0.16933,-0.0212 0.0423,0 0.0847,-0.0423 0.10584,-0.0847 0,-0.0212 0.0212,-0.0635 0.0212,-0.0847 0,-0.0847 -0.0212,-0.127 -0.0847,-0.14817 -0.0635,-0.0423 -0.127,-0.0423 -0.254,-0.0423 z"
       style="fill:#000000;fill-opacity:1;fill-rule:nonzero;stroke:none;stroke-width:0.26458332"
       inkscape:connector-curvature="0" />
    <path
       id="path15"
       d="m 461.53632,226.38418 v -0.95249 c -0.16933,0.14817 -0.27517,0.21167 -0.33867,0.21167 -0.0423,0 -0.0635,-0.0212 -0.0847,-0.0423 -0.0212,-0.0212 -0.0423,-0.0423 -0.0423,-0.0847 0,-0.0212 0.0212,-0.0423 0.0423,-0.0635 0.0212,-0.0212 0.0635,-0.0423 0.127,-0.0635 0.0635,-0.0423 0.14816,-0.0847 0.1905,-0.127 0.0423,-0.0423 0.0847,-0.0847 0.12699,-0.14817 0.0423,-0.0635 0.0635,-0.0847 0.0847,-0.10583 0,0 0.0212,-0.0212 0.0635,-0.0212 0.0423,0 0.0635,0.0212 0.0847,0.0423 0.0212,0.0423 0.0423,0.0847 0.0423,0.127 v 1.18532 c 0,0.127 -0.0635,0.21167 -0.14817,0.21167 -0.0423,0 -0.0847,-0.0212 -0.10583,-0.0423 -0.0212,-0.0423 -0.0423,-0.0847 -0.0423,-0.127 z"
       style="fill:#000000;fill-opacity:1;fill-rule:nonzero;stroke:none;stroke-width:0.26458332"
       inkscape:connector-curvature="0" />
    <path
       id="path17"
       d="m 463.8858,225.26236 h -0.33866 v 1.10066 c 0,0.0635 -0.0212,0.10583 -0.0423,0.14816 -0.0212,0.0212 -0.0635,0.0423 -0.10583,0.0423 -0.0423,0 -0.0847,-0.0212 -0.10583,-0.0635 -0.0423,-0.0212 -0.0423,-0.0635 -0.0423,-0.127 v -1.10065 h -0.33866 c -0.0635,0 -0.10583,-0.0212 -0.127,-0.0423 -0.0212,-0.0212 -0.0423,-0.0423 -0.0423,-0.0847 0,-0.0423 0.0212,-0.0635 0.0423,-0.10584 0.0423,-0.0212 0.0635,-0.0212 0.127,-0.0212 h 0.97366 c 0.0423,0 0.0847,0 0.10583,0.0423 0.0423,0.0212 0.0423,0.0423 0.0423,0.0847 0,0.0423 0,0.0635 -0.0423,0.0847 -0.0212,0.0212 -0.0635,0.0423 -0.10583,0.0423 z"
       style="fill:#000000;fill-opacity:1;fill-rule:nonzero;stroke:none;stroke-width:0.26458332"
       inkscape:connector-curvature="0" />
    <path
       id="path19"
       d="m 464.16096,226.23602 0.33867,-0.508 -0.27517,-0.4445 c -0.0423,-0.0423 -0.0423,-0.0635 -0.0635,-0.10583 -0.0212,-0.0212 -0.0212,-0.0635 -0.0212,-0.0847 0,-0.0212 0.0212,-0.0635 0.0423,-0.0847 0.0212,-0.0212 0.0423,-0.0212 0.0847,-0.0212 0.0423,0 0.0847,0 0.10583,0.0212 0.0212,0.0423 0.0635,0.0847 0.10583,0.14817 l 0.21167,0.35983 0.254,-0.35983 c 0.0212,-0.0212 0.0423,-0.0635 0.0423,-0.0847 0.0212,-0.0212 0.0423,-0.0423 0.0423,-0.0423 0.0212,-0.0212 0.0212,-0.0423 0.0423,-0.0423 0.0212,0 0.0423,0 0.0635,0 0.0423,0 0.0635,0 0.0847,0.0212 0.0423,0.0212 0.0423,0.0635 0.0423,0.0847 0,0.0423 -0.0212,0.10583 -0.0847,0.1905 l -0.29633,0.44449 0.31749,0.508 c 0.0423,0.0423 0.0635,0.0635 0.0635,0.10583 0.0212,0.0212 0.0212,0.0423 0.0212,0.0635 0,0.0423 0,0.0635 0,0.0847 -0.0212,0.0212 -0.0423,0.0212 -0.0635,0.0423 -0.0212,0 -0.0423,0.0212 -0.0635,0.0212 -0.0423,0 -0.0635,-0.0212 -0.0847,-0.0212 -0.0212,-0.0212 -0.0212,-0.0212 -0.0423,-0.0423 -0.0212,-0.0212 -0.0423,-0.0635 -0.0635,-0.10583 l -0.27516,-0.42333 -0.27517,0.42333 c -0.0212,0.0423 -0.0423,0.0635 -0.0635,0.0847 0,0 0,0.0212 -0.0212,0.0423 -0.0212,0 -0.0212,0.0212 -0.0423,0.0212 -0.0212,0 -0.0423,0.0212 -0.0635,0.0212 -0.0423,0 -0.0635,-0.0212 -0.10584,-0.0423 -0.0212,-0.0212 -0.0212,-0.0635 -0.0212,-0.10583 0,-0.0423 0.0212,-0.10584 0.0635,-0.16934 z"
       style="fill:#000000;fill-opacity:1;fill-rule:nonzero;stroke:none;stroke-width:0.26458332"
       inkscape:connector-curvature="0" />
    <path
       id="path21"
       d="M 504.29267,226.40535 H 503.827 c -0.0635,0 -0.12699,0 -0.14816,-0.0423 -0.0212,-0.0212 -0.0423,-0.0847 -0.0423,-0.14817 v -1.12182 c 0,-0.0847 0.0212,-0.127 0.0423,-0.14817 0.0212,-0.0423 0.0847,-0.0423 0.14816,-0.0423 h 0.48683 c 0.0635,0 0.127,0 0.1905,0 0.0423,0.0212 0.10584,0.0212 0.14817,0.0635 0.0212,0.0212 0.0635,0.0423 0.0847,0.0847 0.0212,0.0212 0.0423,0.0635 0.0635,0.10584 0.0212,0.0423 0.0212,0.0847 0.0212,0.12699 0,0.14817 -0.0847,0.254 -0.23283,0.3175 0.21166,0.0635 0.29633,0.1905 0.29633,0.381 0,0.0847 -0.0212,0.14817 -0.0635,0.23283 -0.0423,0.0635 -0.0847,0.10583 -0.16933,0.14817 -0.0423,0.0212 -0.10584,0.0212 -0.14817,0.0423 -0.0635,0 -0.14816,0 -0.21166,0 z m -0.0212,-0.67733 h -0.33867 v 0.4445 h 0.33867 c 0.21166,0 0.31749,-0.0635 0.31749,-0.21167 0,-0.0847 -0.0423,-0.14816 -0.0847,-0.16933 -0.0635,-0.0423 -0.12699,-0.0635 -0.23283,-0.0635 z m -0.33866,-0.59266 v 0.381 h 0.29633 c 0.0635,0 0.127,0 0.16933,-0.0212 0.0423,-0.0212 0.0847,-0.0423 0.10583,-0.0847 0,-0.0212 0.0212,-0.0635 0.0212,-0.10584 0,-0.0635 -0.0212,-0.12699 -0.0847,-0.14816 -0.0635,-0.0212 -0.14816,-0.0212 -0.254,-0.0212 z"
       style="fill:#000000;fill-opacity:1;fill-rule:nonzero;stroke:none;stroke-width:0.26458332"
       inkscape:connector-curvature="0" />
    <path
       id="path23"
       d="m 505.58382,226.27835 v -0.95249 c -0.16933,0.127 -0.29633,0.21166 -0.33866,0.21166 -0.0423,0 -0.0635,-0.0212 -0.0847,-0.0423 -0.0212,-0.0212 -0.0423,-0.0423 -0.0423,-0.0847 0,-0.0212 0.0212,-0.0635 0.0423,-0.0635 0.0212,-0.0212 0.0635,-0.0423 0.10583,-0.0847 0.0847,-0.0212 0.16934,-0.0635 0.21167,-0.10583 0.0423,-0.0423 0.0847,-0.10583 0.127,-0.14817 0.0423,-0.0635 0.0635,-0.0847 0.0847,-0.10583 0,-0.0212 0.0212,-0.0212 0.0635,-0.0212 0.0423,0 0.0635,0.0212 0.0847,0.0423 0.0212,0.0423 0.0423,0.0635 0.0423,0.127 v 1.18532 c 0,0.127 -0.0635,0.1905 -0.14817,0.1905 -0.0423,0 -0.0847,0 -0.10583,-0.0423 -0.0212,-0.0212 -0.0423,-0.0635 -0.0423,-0.10583 z"
       style="fill:#000000;fill-opacity:1;fill-rule:nonzero;stroke:none;stroke-width:0.26458332"
       inkscape:connector-curvature="0" />
    <path
       id="path25"
       d="m 507.36181,225.77035 h -0.10583 v 0.48683 c 0,0.0635 -0.0212,0.10584 -0.0423,0.127 -0.0423,0.0423 -0.0635,0.0423 -0.127,0.0423 -0.0423,0 -0.0847,0 -0.10583,-0.0423 -0.0212,-0.0212 -0.0423,-0.0847 -0.0423,-0.127 v -1.16415 c 0,-0.0847 0.0212,-0.127 0.0423,-0.14817 0.0423,-0.0423 0.0847,-0.0423 0.14816,-0.0423 h 0.508 c 0.0635,0 0.127,0 0.16933,0 0.0423,0 0.0847,0.0212 0.127,0.0423 0.0635,0.0212 0.0847,0.0423 0.127,0.0847 0.0423,0.0423 0.0635,0.0847 0.0847,0.127 0.0212,0.0423 0.0212,0.10583 0.0212,0.14817 0,0.12699 -0.0212,0.21166 -0.0847,0.27516 -0.0635,0.0635 -0.16933,0.127 -0.29633,0.14817 0.0635,0.0212 0.10583,0.0635 0.16933,0.12699 0.0423,0.0635 0.0847,0.10584 0.127,0.16934 0.0423,0.0635 0.0635,0.127 0.0847,0.1905 0.0212,0.0423 0.0423,0.0847 0.0423,0.10583 0,0.0212 -0.0212,0.0423 -0.0212,0.0423 -0.0212,0.0212 -0.0423,0.0423 -0.0635,0.0635 -0.0212,0 -0.0423,0 -0.0635,0 -0.0423,0 -0.0635,0 -0.0847,-0.0212 -0.0212,0 -0.0423,-0.0212 -0.0635,-0.0635 -0.0212,-0.0212 -0.0423,-0.0635 -0.0635,-0.10584 l -0.127,-0.19049 c -0.0423,-0.0847 -0.0847,-0.14817 -0.127,-0.1905 -0.0212,-0.0212 -0.0635,-0.0635 -0.10583,-0.0635 -0.0423,-0.0212 -0.0847,-0.0212 -0.127,-0.0212 z m 0.16933,-0.63499 h -0.27516 v 0.40216 h 0.27516 c 0.0635,0 0.127,0 0.16933,-0.0212 0.0635,0 0.10584,-0.0212 0.127,-0.0635 0.0212,-0.0212 0.0423,-0.0635 0.0423,-0.127 0,-0.0423 -0.0212,-0.0635 -0.0423,-0.10583 -0.0212,-0.0423 -0.0423,-0.0635 -0.0847,-0.0635 -0.0423,-0.0212 -0.10583,-0.0212 -0.21166,-0.0212 z"
       style="fill:#000000;fill-opacity:1;fill-rule:nonzero;stroke:none;stroke-width:0.26458332"
       inkscape:connector-curvature="0" />
    <path
       id="path27"
       d="m 508.42014,226.10902 0.33866,-0.48683 -0.29633,-0.4445 c -0.0212,-0.0423 -0.0423,-0.0847 -0.0635,-0.10583 0,-0.0423 -0.0212,-0.0635 -0.0212,-0.0847 0,-0.0423 0.0212,-0.0635 0.0423,-0.0847 0.0212,-0.0212 0.0635,-0.0423 0.10583,-0.0423 0.0423,0 0.0635,0.0212 0.0847,0.0423 0.0212,0.0212 0.0635,0.0847 0.10583,0.14817 l 0.23284,0.35983 0.23283,-0.35983 c 0.0212,-0.0423 0.0423,-0.0635 0.0635,-0.0847 0,-0.0212 0.0212,-0.0423 0.0423,-0.0635 0,0 0.0212,-0.0212 0.0423,-0.0212 0,0 0.0212,-0.0212 0.0423,-0.0212 0.0423,0 0.0847,0.0212 0.10583,0.0423 0.0212,0.0212 0.0212,0.0423 0.0212,0.0847 0,0.0423 -0.0212,0.10583 -0.0635,0.19049 l -0.29633,0.4445 0.31749,0.48683 c 0.0212,0.0423 0.0423,0.0847 0.0635,0.10583 0,0.0423 0.0212,0.0635 0.0212,0.0847 0,0.0212 -0.0212,0.0423 -0.0212,0.0635 -0.0212,0.0212 -0.0423,0.0423 -0.0635,0.0635 -0.0212,0 -0.0423,0 -0.0635,0 -0.0212,0 -0.0423,0 -0.0635,0 -0.0212,-0.0212 -0.0423,-0.0423 -0.0635,-0.0635 0,0 -0.0212,-0.0423 -0.0635,-0.0847 l -0.27516,-0.42333 -0.27516,0.42333 c -0.0212,0.0423 -0.0423,0.0635 -0.0423,0.0847 -0.0212,0 -0.0212,0.0212 -0.0423,0.0212 0,0.0212 -0.0212,0.0423 -0.0423,0.0423 -0.0212,0 -0.0423,0 -0.0635,0 -0.0423,0 -0.0635,0 -0.0847,-0.0212 -0.0212,-0.0212 -0.0423,-0.0635 -0.0423,-0.10583 0,-0.0423 0.0212,-0.10583 0.0847,-0.1905 z"
       style="fill:#000000;fill-opacity:1;fill-rule:nonzero;stroke:none;stroke-width:0.26458332"
       inkscape:connector-curvature="0" />
    <path
       id="path29"
       d="m 472.56407,229.72849 v -7.93744 h 11.91674 v 7.93744 z"
       style="fill:#ffffff;fill-opacity:1;fill-rule:nonzero;stroke:#000000;stroke-width:0.27516463px;stroke-linecap:round;stroke-linejoin:round;stroke-miterlimit:4;stroke-dasharray:none;stroke-opacity:1"
       inkscape:connector-curvature="0" />
    <path
       id="path31"
       d="m 478.25786,227.04034 0.52916,-0.52916"
       style="fill:none;stroke:#000000;stroke-width:0.27516463px;stroke-linecap:round;stroke-linejoin:miter;stroke-miterlimit:4;stroke-dasharray:none;stroke-opacity:1"
       inkscape:connector-curvature="0" />
    <path
       id="path33"
       d="m 478.25786,224.75436 0.52916,-0.52916"
       style="fill:none;stroke:#000000;stroke-width:0.27516463px;stroke-linecap:round;stroke-linejoin:miter;stroke-miterlimit:4;stroke-dasharray:none;stroke-opacity:1"
       inkscape:connector-curvature="0" />
    <path
       id="path35"
       d="m 476.75504,225.64336 c 0.21166,-0.27517 0.42333,-0.5715 0.76199,-0.6985 0.3175,-0.0423 0.59266,0.16933 0.762,0.40216 0.29633,0.33867 0.52916,0.71967 0.93132,0.9525 0.27517,0.10583 0.59267,-0.0635 0.762,-0.29633 0.10583,-0.10584 0.21166,-0.254 0.3175,-0.35983"
       style="fill:none;stroke:#000000;stroke-width:0.27516463px;stroke-linecap:round;stroke-linejoin:miter;stroke-miterlimit:4;stroke-dasharray:none;stroke-opacity:1"
       inkscape:connector-curvature="0" />
    <path
       id="path37"
       d="m 476.75504,224.4792 c 0.21166,-0.254 0.42333,-0.55033 0.76199,-0.67733 0.3175,-0.0635 0.59266,0.16933 0.762,0.40216 0.29633,0.3175 0.52916,0.71966 0.93132,0.93133 0.27517,0.127 0.59267,-0.0423 0.762,-0.27517 0.10583,-0.12699 0.21166,-0.25399 0.3175,-0.38099"
       style="fill:none;stroke:#000000;stroke-width:0.27516463px;stroke-linecap:round;stroke-linejoin:miter;stroke-miterlimit:4;stroke-dasharray:none;stroke-opacity:1"
       inkscape:connector-curvature="0" />
    <path
       id="path39"
       d="m 476.75504,226.78635 c 0.21166,-0.27517 0.42333,-0.5715 0.76199,-0.67733 0.3175,-0.0635 0.59266,0.16933 0.762,0.381 0.29633,0.33866 0.52916,0.74082 0.93132,0.95249 0.27517,0.10583 0.59267,-0.0635 0.762,-0.29633 0.10583,-0.10584 0.21166,-0.23283 0.3175,-0.35983"
       style="fill:none;stroke:#000000;stroke-width:0.27516463px;stroke-linecap:round;stroke-linejoin:miter;stroke-miterlimit:4;stroke-dasharray:none;stroke-opacity:1"
       inkscape:connector-curvature="0" />
    <path
       id="path41"
       d="m 469.19859,225.77035 h 3.42898"
       style="fill:none;stroke:#000000;stroke-width:0.27516463px;stroke-linecap:butt;stroke-linejoin:round;stroke-miterlimit:4;stroke-dasharray:none;stroke-opacity:1"
       inkscape:connector-curvature="0" />
    <path
       id="path43"
       d="m 484.26915,229.72849 v -7.93744 h 11.91675 v 7.93744 z"
       style="fill:#ffffff;fill-opacity:1;fill-rule:nonzero;stroke:#000000;stroke-width:0.27516463px;stroke-linecap:round;stroke-linejoin:round;stroke-miterlimit:4;stroke-dasharray:none;stroke-opacity:1"
       inkscape:connector-curvature="0" />
    <path
       id="path45"
       d="m 489.96294,227.04034 0.52916,-0.52916"
       style="fill:none;stroke:#000000;stroke-width:0.27516463px;stroke-linecap:round;stroke-linejoin:miter;stroke-miterlimit:4;stroke-dasharray:none;stroke-opacity:1"
       inkscape:connector-curvature="0" />
    <path
       id="path47"
       d="m 489.96294,224.75436 0.52916,-0.52916"
       style="fill:none;stroke:#000000;stroke-width:0.27516463px;stroke-linecap:round;stroke-linejoin:miter;stroke-miterlimit:4;stroke-dasharray:none;stroke-opacity:1"
       inkscape:connector-curvature="0" />
    <path
       id="path49"
       d="m 488.46012,225.64336 c 0.21166,-0.27517 0.42333,-0.5715 0.76199,-0.6985 0.3175,-0.0423 0.59266,0.16933 0.762,0.40216 0.29633,0.33867 0.52916,0.71967 0.93132,0.9525 0.27517,0.10583 0.59267,-0.0635 0.762,-0.29633 0.10583,-0.10584 0.21166,-0.254 0.31749,-0.35983"
       style="fill:none;stroke:#000000;stroke-width:0.27516463px;stroke-linecap:round;stroke-linejoin:miter;stroke-miterlimit:4;stroke-dasharray:none;stroke-opacity:1"
       inkscape:connector-curvature="0" />
    <path
       id="path51"
       d="m 488.46012,224.4792 c 0.21166,-0.254 0.42333,-0.55033 0.76199,-0.67733 0.3175,-0.0635 0.59266,0.16933 0.762,0.40216 0.29633,0.3175 0.52916,0.71966 0.93132,0.93133 0.27517,0.127 0.59267,-0.0423 0.762,-0.27517 0.10583,-0.12699 0.21166,-0.25399 0.31749,-0.38099"
       style="fill:none;stroke:#000000;stroke-width:0.27516463px;stroke-linecap:round;stroke-linejoin:miter;stroke-miterlimit:4;stroke-dasharray:none;stroke-opacity:1"
       inkscape:connector-curvature="0" />
    <path
       id="path53"
       d="m 488.46012,226.78635 c 0.21166,-0.27517 0.42333,-0.5715 0.76199,-0.67733 0.3175,-0.0635 0.59266,0.16933 0.762,0.381 0.29633,0.33866 0.52916,0.74082 0.93132,0.95249 0.27517,0.10583 0.59267,-0.0635 0.762,-0.29633 0.10583,-0.10584 0.21166,-0.23283 0.31749,-0.35983"
       style="fill:none;stroke:#000000;stroke-width:0.27516463px;stroke-linecap:round;stroke-linejoin:miter;stroke-miterlimit:4;stroke-dasharray:none;stroke-opacity:1"
       inkscape:connector-curvature="0" />
    <path
       id="path55"
       d="m 496.1859,225.77035 h 3.42897"
       style="fill:none;stroke:#000000;stroke-width:0.27516463px;stroke-linecap:butt;stroke-linejoin:round;stroke-miterlimit:4;stroke-dasharray:none;stroke-opacity:1"
       inkscape:connector-curvature="0" />
    <path
       id="path57"
       d="m 484.26915,218.48908 v 3.45014"
       style="fill:none;stroke:#000000;stroke-width:0.27516463px;stroke-linecap:butt;stroke-linejoin:round;stroke-miterlimit:4;stroke-dasharray:none;stroke-opacity:1"
       inkscape:connector-curvature="0" />
    <path
       id="path59"
       d="m 483.38016,214.31927 -0.0635,-0.1905 h -0.61383 l -0.0635,0.1905 c -0.0423,0.0635 -0.0635,0.127 -0.0847,0.14817 -0.0212,0.0212 -0.0423,0.0423 -0.10584,0.0423 -0.0212,0 -0.0635,-0.0212 -0.0847,-0.0423 -0.0423,-0.0212 -0.0423,-0.0635 -0.0423,-0.10583 0,0 0,-0.0423 0,-0.0635 0,-0.0212 0.0212,-0.0423 0.0423,-0.0847 l 0.381,-0.97366 c 0,-0.0423 0.0212,-0.0635 0.0423,-0.10583 0.0212,-0.0423 0.0212,-0.0847 0.0423,-0.10583 0.0212,-0.0212 0.0423,-0.0423 0.0635,-0.0635 0.0423,-0.0212 0.0635,-0.0212 0.10585,-0.0212 0.0423,0 0.0847,0 0.10583,0.0212 0.0423,0.0212 0.0635,0.0423 0.0847,0.0635 0.0212,0.0212 0.0212,0.0635 0.0423,0.0847 0,0.0212 0.0212,0.0635 0.0423,0.127 l 0.40216,0.97366 c 0.0212,0.0635 0.0423,0.127 0.0423,0.14817 0,0.0423 -0.0212,0.0847 -0.0423,0.10583 -0.0423,0.0212 -0.0635,0.0423 -0.10583,0.0423 -0.0212,0 -0.0423,0 -0.0635,-0.0212 -0.0212,0 -0.0423,-0.0212 -0.0423,-0.0212 -0.0212,-0.0212 -0.0212,-0.0423 -0.0423,-0.0635 -0.0212,-0.0423 -0.0212,-0.0635 -0.0423,-0.0847 z m -0.59267,-0.42333 h 0.4445 l -0.23283,-0.63499 z"
       style="fill:#000000;fill-opacity:1;fill-rule:nonzero;stroke:none;stroke-width:0.26458332"
       inkscape:connector-curvature="0" />
    <path
       id="path61"
       d="m 484.33265,213.13395 0.59266,0.88899 v -0.91016 c 0,-0.0423 0.0212,-0.10583 0.0423,-0.127 0.0212,-0.0212 0.0635,-0.0423 0.10584,-0.0423 0.0423,0 0.0847,0.0212 0.10583,0.0423 0.0212,0.0212 0.0423,0.0847 0.0423,0.127 v 1.20649 c 0,0.127 -0.0635,0.1905 -0.16933,0.1905 -0.0212,0 -0.0635,0 -0.0847,-0.0212 -0.0212,0 -0.0423,-0.0212 -0.0635,-0.0212 -0.0212,-0.0212 -0.0212,-0.0423 -0.0423,-0.0635 -0.0212,-0.0212 -0.0423,-0.0423 -0.0635,-0.0847 l -0.57149,-0.86782 v 0.88899 c 0,0.0423 0,0.10583 -0.0423,0.127 -0.0212,0.0212 -0.0635,0.0423 -0.0847,0.0423 -0.0635,0 -0.0847,-0.0212 -0.10584,-0.0423 -0.0423,-0.0423 -0.0423,-0.0847 -0.0423,-0.127 v -1.18533 c 0,-0.0423 0,-0.0847 0,-0.10583 0.0212,-0.0212 0.0423,-0.0635 0.0847,-0.0847 0.0212,-0.0212 0.0635,-0.0212 0.0847,-0.0212 0.0423,0 0.0635,0 0.0847,0.0212 0,0 0.0212,0.0212 0.0423,0.0212 0.0212,0.0212 0.0212,0.0423 0.0423,0.0635 0.0212,0.0212 0.0423,0.0423 0.0423,0.0847 z"
       style="fill:#000000;fill-opacity:1;fill-rule:nonzero;stroke:none;stroke-width:0.26458332"
       inkscape:connector-curvature="0" />
    <path
       id="path63"
       d="m 486.53397,213.21861 h -0.33867 v 1.10066 c 0,0.0635 -0.0212,0.10584 -0.0423,0.14817 -0.0212,0.0212 -0.0635,0.0423 -0.10583,0.0423 -0.0423,0 -0.0847,-0.0212 -0.10583,-0.0423 -0.0423,-0.0423 -0.0423,-0.0847 -0.0423,-0.14817 v -1.10066 h -0.33867 c -0.0635,0 -0.0847,0 -0.127,-0.0212 -0.0212,-0.0423 -0.0212,-0.0635 -0.0212,-0.10583 0,-0.0423 0,-0.0635 0.0212,-0.0847 0.0423,-0.0212 0.0847,-0.0423 0.127,-0.0423 h 0.97366 c 0.0423,0 0.0847,0.0212 0.127,0.0423 0.0212,0.0212 0.0212,0.0423 0.0212,0.0847 0,0.0423 0,0.0635 -0.0212,0.10583 -0.0423,0.0212 -0.0847,0.0212 -0.127,0.0212 z"
       style="fill:#000000;fill-opacity:1;fill-rule:nonzero;stroke:none;stroke-width:0.26458332"
       inkscape:connector-curvature="0" />
    <path
       id="path65"
       d="m 499.61487,225.77035 1.58749,1.58749 h 1.05832 v -3.17497 h -1.05832 z"
       style="fill:none;stroke:#000000;stroke-width:0.27516463px;stroke-linecap:butt;stroke-linejoin:miter;stroke-miterlimit:4;stroke-dasharray:none;stroke-opacity:1"
       inkscape:connector-curvature="0" />
    <path
       id="path67"
       d="m 469.19859,225.77035 -1.58748,1.58749 h -1.05833 v -3.17497 h 1.05833 z"
       style="fill:none;stroke:#000000;stroke-width:0.27516463px;stroke-linecap:butt;stroke-linejoin:miter;stroke-miterlimit:4;stroke-dasharray:none;stroke-opacity:1"
       inkscape:connector-curvature="0" />
    <path
       id="path69"
       d="m 484.26915,218.48908 -1.58749,-1.58749 v -1.05833 h 3.17498 v 1.05833 z"
       style="fill:none;stroke:#000000;stroke-width:0.27516463px;stroke-linecap:butt;stroke-linejoin:miter;stroke-miterlimit:4;stroke-dasharray:none;stroke-opacity:1"
       inkscape:connector-curvature="0" />
  </g>
</svg>
